<svg width="32" height="32" viewBox="0 0 32 32" fill="none" xmlns="http://www.w3.org/2000/svg">
<path d="M22.6666 26.6668H29.3333V24.0002C29.3332 23.1689 29.0742 22.3583 28.5921 21.681C28.1101 21.0037 27.429 20.4935 26.6436 20.2212C25.8582 19.9489 25.0075 19.928 24.2096 20.1615C23.4118 20.395 22.7066 20.8713 22.192 21.5242M22.6666 26.6668H9.33329M22.6666 26.6668V24.0002C22.6666 23.1255 22.4986 22.2895 22.192 21.5242M22.192 21.5242C21.6968 20.2868 20.8423 19.2261 19.7386 18.479C18.6349 17.7319 17.3327 17.3326 16 17.3326C14.6672 17.3326 13.365 17.7319 12.2613 18.479C11.1576 19.2261 10.3031 20.2868 9.80796 21.5242M9.33329 26.6668H2.66663V24.0002C2.66669 23.1689 2.92574 22.3583 3.40777 21.681C3.88981 21.0037 4.57087 20.4935 5.35629 20.2212C6.14171 19.9489 6.99246 19.928 7.79028 20.1615C8.58809 20.395 9.29333 20.8713 9.80796 21.5242M9.33329 26.6668V24.0002C9.33329 23.1255 9.50129 22.2895 9.80796 21.5242M20 9.3335C20 10.3944 19.5785 11.4118 18.8284 12.1619C18.0782 12.9121 17.0608 13.3335 16 13.3335C14.9391 13.3335 13.9217 12.9121 13.1715 12.1619C12.4214 11.4118 12 10.3944 12 9.3335C12 8.27263 12.4214 7.25521 13.1715 6.50507C13.9217 5.75492 14.9391 5.3335 16 5.3335C17.0608 5.3335 18.0782 5.75492 18.8284 6.50507C19.5785 7.25521 20 8.27263 20 9.3335ZM28 13.3335C28 14.0407 27.719 14.719 27.2189 15.2191C26.7188 15.7192 26.0405 16.0002 25.3333 16.0002C24.626 16.0002 23.9478 15.7192 23.4477 15.2191C22.9476 14.719 22.6666 14.0407 22.6666 13.3335C22.6666 12.6263 22.9476 11.948 23.4477 11.4479C23.9478 10.9478 24.626 10.6668 25.3333 10.6668C26.0405 10.6668 26.7188 10.9478 27.2189 11.4479C27.719 11.948 28 12.6263 28 13.3335ZM9.33329 13.3335C9.33329 14.0407 9.05234 14.719 8.55224 15.2191C8.05215 15.7192 7.37387 16.0002 6.66663 16.0002C5.95938 16.0002 5.2811 15.7192 4.78101 15.2191C4.28091 14.719 3.99996 14.0407 3.99996 13.3335C3.99996 12.6263 4.28091 11.948 4.78101 11.4479C5.2811 10.9478 5.95938 10.6668 6.66663 10.6668C7.37387 10.6668 8.05215 10.9478 8.55224 11.4479C9.05234 11.948 9.33329 12.6263 9.33329 13.3335Z" stroke="black" stroke-width="2" stroke-linecap="round" stroke-linejoin="round"/>
</svg>
