<svg width="32" height="32" viewBox="0 0 32 32" fill="none" xmlns="http://www.w3.org/2000/svg">
<path d="M12 6.66667H9.33329C8.62605 6.66667 7.94777 6.94762 7.44767 7.44772C6.94758 7.94781 6.66663 8.62609 6.66663 9.33333V25.3333C6.66663 26.0406 6.94758 26.7189 7.44767 27.219C7.94777 27.719 8.62605 28 9.33329 28H22.6666C23.3739 28 24.0521 27.719 24.5522 27.219C25.0523 26.7189 25.3333 26.0406 25.3333 25.3333V9.33333C25.3333 8.62609 25.0523 7.94781 24.5522 7.44772C24.0521 6.94762 23.3739 6.66667 22.6666 6.66667H20M12 6.66667C12 7.37391 12.2809 8.05219 12.781 8.55229C13.2811 9.05238 13.9594 9.33333 14.6666 9.33333H17.3333C18.0405 9.33333 18.7188 9.05238 19.2189 8.55229C19.719 8.05219 20 7.37391 20 6.66667M12 6.66667C12 5.95942 12.2809 5.28115 12.781 4.78105C13.2811 4.28095 13.9594 4 14.6666 4H17.3333C18.0405 4 18.7188 4.28095 19.2189 4.78105C19.719 5.28115 20 5.95942 20 6.66667" stroke="#172B4D" stroke-width="3" stroke-linecap="round" stroke-linejoin="round"/>
</svg>
