<svg width="32" height="33" viewBox="0 0 32 33" fill="none" xmlns="http://www.w3.org/2000/svg">
<path d="M28 18.1732C24.1873 19.7148 20.1126 20.5049 16 20.4998C11.756 20.4998 7.70667 19.6732 4 18.1732M21.3333 8.49984V5.83317C21.3333 5.12593 21.0524 4.44765 20.5523 3.94755C20.0522 3.44746 19.3739 3.1665 18.6667 3.1665H13.3333C12.6261 3.1665 11.9478 3.44746 11.4477 3.94755C10.9476 4.44765 10.6667 5.12593 10.6667 5.83317V8.49984M16 16.4998H16.0133M6.66667 27.1665H25.3333C26.0406 27.1665 26.7189 26.8856 27.219 26.3855C27.719 25.8854 28 25.2071 28 24.4998V11.1665C28 10.4593 27.719 9.78098 27.219 9.28089C26.7189 8.78079 26.0406 8.49984 25.3333 8.49984H6.66667C5.95942 8.49984 5.28115 8.78079 4.78105 9.28089C4.28095 9.78098 4 10.4593 4 11.1665V24.4998C4 25.2071 4.28095 25.8854 4.78105 26.3855C5.28115 26.8856 5.95942 27.1665 6.66667 27.1665Z" stroke="black" stroke-width="2" stroke-linecap="round" stroke-linejoin="round"/>
</svg>
