<svg width="32" height="32" viewBox="0 0 32 32" fill="none" xmlns="http://www.w3.org/2000/svg">
<path d="M10.6666 9.33333V20C10.6666 20.7072 10.9475 21.3855 11.4476 21.8856C11.9477 22.3857 12.626 22.6667 13.3333 22.6667H21.3333M10.6666 9.33333V6.66667C10.6666 5.95942 10.9475 5.28115 11.4476 4.78105C11.9477 4.28095 12.626 4 13.3333 4H19.4479C19.8015 4.00008 20.1406 4.1406 20.3906 4.39067L26.2759 10.276C26.526 10.526 26.6665 10.8651 26.6666 11.2187V20C26.6666 20.7072 26.3856 21.3855 25.8855 21.8856C25.3854 22.3857 24.7072 22.6667 23.9999 22.6667H21.3333M10.6666 9.33333H7.99992C7.29267 9.33333 6.6144 9.61428 6.1143 10.1144C5.6142 10.6145 5.33325 11.2928 5.33325 12V25.3333C5.33325 26.0406 5.6142 26.7189 6.1143 27.219C6.6144 27.719 7.29267 28 7.99992 28H18.6666C19.3738 28 20.0521 27.719 20.5522 27.219C21.0523 26.7189 21.3333 26.0406 21.3333 25.3333V22.6667" stroke="url(#paint0_linear_131_172)" stroke-width="2" stroke-linecap="round" stroke-linejoin="round"/>
<defs>
<linearGradient id="paint0_linear_131_172" x1="6.99991" y1="4" x2="24.4999" y2="4" gradientUnits="userSpaceOnUse">
<stop stop-color="#3467AE"/>
<stop offset="1" stop-color="#0C4969"/>
</linearGradient>
</defs>
</svg>
