<svg width="144" height="28" viewBox="0 0 144 28" fill="none" xmlns="http://www.w3.org/2000/svg">
<path d="M12.5394 17.7677H6.19308L5.22894 20.6945H0L6.52399 2.78711H12.2543L18.7526 20.6945H13.4964L12.5394 17.7677ZM9.36625 8.16935L7.46377 13.9556H11.296L9.36625 8.16935Z" fill="#172B4D"/>
<path d="M20.3801 1.9043H25.3541V20.6999H20.3801V1.9043Z" fill="#172B4D"/>
<path d="M33.4492 6.27876C34.277 6.22921 35.1029 6.40339 35.8402 6.783C36.5774 7.16261 37.199 7.73365 37.6395 8.43624V6.4478H42.6135V20.5345C42.6135 24.3408 40.5334 27.6974 35.4047 27.6974C30.9637 27.6974 28.2217 25.464 27.8664 21.9369H32.7687C32.9721 22.8495 33.8346 23.3824 35.1038 23.3824C36.4992 23.3824 37.6424 22.7492 37.6424 20.5402V18.7122C37.2019 19.4145 36.5806 19.9853 35.8436 20.3649C35.1066 20.7445 34.2811 20.9188 33.4535 20.8697C30.0784 20.8697 27.3879 18.1034 27.3879 13.5635C27.3879 9.02361 30.0726 6.27876 33.4492 6.27876ZM35.048 10.6181C34.6771 10.6188 34.3106 10.6983 33.9728 10.8515C33.6351 11.0047 33.3338 11.228 33.0889 11.5066C32.8441 11.7851 32.6614 12.1126 32.5528 12.4673C32.4443 12.8219 32.4123 13.1956 32.4593 13.5635C32.5248 14.0612 32.7325 14.5294 33.0573 14.9122C33.3821 15.295 33.8103 15.576 34.2907 15.7217C34.7711 15.8674 35.2832 15.8716 35.7659 15.7337C36.2486 15.5958 36.6813 15.3217 37.0123 14.9442C37.3432 14.5668 37.5584 14.1019 37.6319 13.6053C37.7055 13.1088 37.6344 12.6015 37.4272 12.1443C37.2199 11.6871 36.8853 11.2993 36.4633 11.0273C36.0414 10.7554 35.55 10.6108 35.048 10.6109V10.6181Z" fill="#172B4D"/>
<path d="M52.0775 20.8627C50.6428 20.8255 49.2509 20.3662 48.0759 19.5423C46.9008 18.7183 45.9948 17.5662 45.471 16.23C44.9472 14.8939 44.829 13.4329 45.131 12.0299C45.4331 10.6269 46.142 9.34411 47.1692 8.34186C48.1964 7.33961 49.4963 6.66241 50.9063 6.39496C52.3163 6.12751 53.7739 6.28166 55.0968 6.83814C56.4197 7.39462 57.5492 8.32873 58.344 9.52367C59.1388 10.7186 59.5637 12.1214 59.5656 13.5565C59.6116 14.5438 59.4479 15.5297 59.0854 16.4492C58.7228 17.3687 58.1697 18.2009 57.4623 18.8912C56.7548 19.5814 55.9092 20.114 54.981 20.4538C54.0529 20.7936 53.0634 20.933 52.0775 20.8627ZM52.0775 16.5478C53.3467 16.5478 54.5129 15.6094 54.5129 13.5537C54.5129 11.5222 53.3668 10.5839 52.1104 10.5839C50.8541 10.5839 49.7237 11.5222 49.7237 13.5537C49.7166 15.6094 50.7824 16.5478 52.0775 16.5478Z" fill="#172B4D"/>
<path d="M74.4603 6.57848L67.0252 16.6539H74.4603V20.7009H61.4409V16.9103L68.7987 6.81056H61.4409V2.79932H74.4603V6.57848Z" fill="#172B4D"/>
<path d="M83.5684 20.8631C81.6509 20.8362 79.821 20.0556 78.4744 18.6901C77.1279 17.3246 76.373 15.484 76.373 13.5662C76.373 11.6485 77.1279 9.80783 78.4744 8.44232C79.821 7.07681 81.6509 6.2962 83.5684 6.26933C84.5243 6.2035 85.4831 6.34244 86.381 6.67683C87.2788 7.01122 88.0949 7.53337 88.7748 8.2084C89.4548 8.88343 89.9828 9.69579 90.3236 10.5912C90.6645 11.4866 90.8103 12.4445 90.7514 13.4007C90.7515 13.7907 90.7261 14.1802 90.6755 14.5669H81.2591C81.3608 16.2187 82.249 16.8762 83.3622 16.8762C83.7363 16.8901 84.1058 16.7909 84.4227 16.5915C84.7396 16.3922 84.9891 16.102 85.1386 15.7588H90.4391C90.0607 17.2728 89.1692 18.6088 87.9165 19.5395C86.6638 20.4701 85.1272 20.9378 83.5684 20.8631ZM81.2849 12.153H85.6715C85.6729 11.8806 85.6172 11.6109 85.5081 11.3613C85.3989 11.1117 85.2387 10.8877 85.0377 10.7038C84.8368 10.5198 84.5996 10.38 84.3414 10.2933C84.0831 10.2066 83.8096 10.1749 83.5383 10.2004C82.9826 10.1715 82.4374 10.3593 82.0174 10.7243C81.5973 11.0893 81.3352 11.603 81.2863 12.1573L81.2849 12.153Z" fill="#172B4D"/>
<path d="M102.48 13.0473C102.508 12.7199 102.468 12.3903 102.362 12.0794C102.256 11.7685 102.086 11.4829 101.864 11.2409C101.642 10.9989 101.372 10.8057 101.071 10.6736C100.77 10.5414 100.445 10.4732 100.117 10.4732C99.7882 10.4732 99.4631 10.5414 99.1623 10.6736C98.8615 10.8057 98.5915 10.9989 98.3693 11.2409C98.147 11.4829 97.9775 11.7685 97.8714 12.0794C97.7653 12.3903 97.725 12.7199 97.7529 13.0473V20.6944H92.7847V6.44737H97.7586V8.48451C98.2488 7.79599 98.9013 7.23901 99.6582 6.86292C100.415 6.48684 101.253 6.30326 102.098 6.32846C105.402 6.32846 107.453 8.66359 107.453 12.394V20.703H102.479L102.48 13.0473Z" fill="#172B4D"/>
<path d="M109.788 2.58952C109.87 1.87656 110.212 1.21877 110.747 0.741301C111.283 0.263829 111.976 0 112.694 0C113.411 0 114.104 0.263829 114.64 0.741301C115.176 1.21877 115.517 1.87656 115.6 2.58952C115.504 3.29271 115.157 3.93755 114.623 4.40445C114.089 4.87136 113.403 5.12866 112.694 5.12866C111.984 5.12866 111.298 4.87136 110.764 4.40445C110.23 3.93755 109.883 3.29271 109.788 2.58952ZM110.193 6.44748H115.168V20.6946H110.193V6.44748Z" fill="#172B4D"/>
<path d="M118.796 10.5854H117.045V6.44811H118.796V2.99414H123.797V6.44811H126.384V10.5854H123.797V15.3574C123.797 16.1181 124.125 16.4476 124.963 16.4476H126.409V20.6938H124.253C121.101 20.6938 118.796 19.3744 118.796 15.2872V10.5854Z" fill="#172B4D"/>
<path d="M128.695 1.9043H133.67V8.47702C134.166 7.78248 134.827 7.22193 135.593 6.84564C136.359 6.46934 137.207 6.28906 138.06 6.32097C141.309 6.32097 143.36 8.65609 143.36 12.3865V20.6999H138.386V13.0527C138.42 12.7226 138.384 12.3892 138.281 12.0739C138.177 11.7586 138.009 11.4685 137.787 11.2223C137.564 10.9761 137.292 10.7793 136.989 10.6446C136.686 10.5099 136.358 10.4403 136.026 10.4403C135.694 10.4403 135.366 10.5099 135.063 10.6446C134.76 10.7793 134.488 10.9761 134.266 11.2223C134.043 11.4685 133.875 11.7586 133.772 12.0739C133.668 12.3892 133.632 12.7226 133.666 13.0527V20.6999H128.691L128.695 1.9043Z" fill="#172B4D"/>
</svg>
